{
  "accessors": [
    {
      "bufferView": 2,
      "componentType": 5126,
      "count": 3604,
      "max": [
        176.12826538085938,
        8.289258003234863,
        77.75
      ],
      "min": [
        37.868858337402344,
        -24.064640045166016,
        -5.75
      ],
      "type": "VEC3"
    },
    {
      "bufferView": 2,
      "byteOffset": 43248,
      "componentType": 5126,
      "count": 3604,
      "max": [
        1.0,
        1.0,
        1.0
      ],
      "min": [
        -1.0,
        -1.0,
        -1.0
      ],
      "type": "VEC3"
    },
    {
      "bufferView": 3,
      "componentType": 5126,
      "count": 3604,
      "max": [
        1.0,
        1.0,
        1.0,
        1.0
      ],
      "min": [
        -1.0,
        -1.0,
        -1.0,
        -1.0
      ],
      "type": "VEC4"
    },
    {
      "bufferView": 1,
      "componentType": 5126,
      "count": 3604,
      "max": [
        1.35391104221344,
        9.468658447265625
      ],
      "min": [
        -0.6531227231025696,
        -0.955806314945221
      ],
      "type": "VEC2"
    },
    {
      "bufferView": 0,
      "componentType": 5125,
      "count": 6186,
      "type": "SCALAR"
    },
    {
      "bufferView": 2,
      "byteOffset": 86496,
      "componentType": 5126,
      "count": 336,
      "max": [
        171.7440948486328,
        7.789261341094971,
        70.125
      ],
      "min": [
        42.253028869628906,
        -19.385160446166992,
        2.0
      ],
      "type": "VEC3"
    },
    {
      "bufferView": 2,
      "byteOffset": 90528,
      "componentType": 5126,
      "count": 336,
      "max": [
        1.0,
        1.0,
        1.0
      ],
      "min": [
        -1.0,
        -1.0,
        -1.0
      ],
      "type": "VEC3"
    },
    {
      "bufferView": 3,
      "byteOffset": 57664,
      "componentType": 5126,
      "count": 336,
      "max": [
        1.0,
        1.0,
        1.0,
        1.0
      ],
      "min": [
        -1.0,
        -1.0,
        -1.0,
        -1.0
      ],
      "type": "VEC4"
    },
    {
      "bufferView": 1,
      "byteOffset": 28832,
      "componentType": 5126,
      "count": 336,
      "max": [
        0.09700360149145126,
        2.8576738834381104
      ],
      "min": [
        -0.005243437830358744,
        -6.661338147750939e-16
      ],
      "type": "VEC2"
    },
    {
      "bufferView": 0,
      "byteOffset": 24744,
      "componentType": 5125,
      "count": 576,
      "type": "SCALAR"
    },
    {
      "bufferView": 2,
      "byteOffset": 94560,
      "componentType": 5126,
      "count": 84,
      "max": [
        172.00926208496094,
        8.289249420166016,
        70.125
      ],
      "min": [
        41.98786926269531,
        -19.385160446166992,
        2.0
      ],
      "type": "VEC3"
    },
    {
      "bufferView": 0,
      "byteOffset": 27048,
      "componentType": 5125,
      "count": 184,
      "type": "SCALAR"
    },
    {
      "bufferView": 2,
      "byteOffset": 95568,
      "componentType": 5126,
      "count": 8,
      "max": [
        148.93997192382813,
        7.789249420166016,
        70.125
      ],
      "min": [
        65.0572280883789,
        4.965829849243164,
        2.0
      ],
      "type": "VEC3"
    },
    {
      "bufferView": 0,
      "byteOffset": 27784,
      "componentType": 5125,
      "count": 8,
      "type": "SCALAR"
    },
    {
      "bufferView": 2,
      "byteOffset": 95664,
      "componentType": 5126,
      "count": 64,
      "max": [
        170.3298797607422,
        7.414258003234863,
        68.5
      ],
      "min": [
        43.66724395751953,
        -17.705780029296875,
        3.5
      ],
      "type": "VEC3"
    },
    {
      "bufferView": 2,
      "byteOffset": 96432,
      "componentType": 5126,
      "count": 64,
      "max": [
        0.7071068286895752,
        1.0,
        0.0
      ],
      "min": [
        -0.7071068286895752,
        -1.0,
        0.0
      ],
      "type": "VEC3"
    },
    {
      "bufferView": 0,
      "byteOffset": 27816,
      "componentType": 5125,
      "count": 96,
      "type": "SCALAR"
    }
  ],
  "asset": {
    "extras": {
      "author": "jimbogies (https://sketchfab.com/jimbogies)",
      "license": "CC-BY-4.0 (http://creativecommons.org/licenses/by/4.0/)",
      "source": "https://sketchfab.com/3d-models/bay-window-interior-47d752e93078429482eda11eb0b01529",
      "title": "Bay Window Interior"
    },
    "generator": "Sketchfab-12.66.0",
    "version": "2.0"
  },
  "bufferViews": [
    {
      "buffer": 0,
      "byteLength": 28200,
      "name": "floatBufferViews",
      "target": 34963
    },
    {
      "buffer": 0,
      "byteLength": 31520,
      "byteOffset": 28200,
      "byteStride": 8,
      "name": "floatBufferViews",
      "target": 34962
    },
    {
      "buffer": 0,
      "byteLength": 97200,
      "byteOffset": 59720,
      "byteStride": 12,
      "name": "floatBufferViews",
      "target": 34962
    },
    {
      "buffer": 0,
      "byteLength": 63040,
      "byteOffset": 156920,
      "byteStride": 16,
      "name": "floatBufferViews",
      "target": 34962
    }
  ],
  "buffers": [
    {
      "byteLength": 219960,
      "uri": "scene.bin"
    }
  ],
  "images": [
    {
      "uri": "textures/Wood08-basecolor_baseColor.jpeg"
    },
    {
      "uri": "textures/Wood08-basecolor_metallicRoughness.png"
    },
    {
      "uri": "textures/Wood08-basecolor_normal.png"
    },
    {
      "uri": "textures/Plastic_baseColor.jpeg"
    },
    {
      "uri": "textures/Plastic_metallicRoughness.png"
    },
    {
      "uri": "textures/Plastic_normal.png"
    }
  ],
  "materials": [
    {
      "name": "Wood08-basecolor",
      "normalTexture": {
        "index": 2
      },
      "pbrMetallicRoughness": {
        "baseColorTexture": {
          "index": 0
        },
        "metallicFactor": 0.0,
        "metallicRoughnessTexture": {
          "index": 1
        }
      }
    },
    {
      "name": "Plastic",
      "normalTexture": {
        "index": 5
      },
      "pbrMetallicRoughness": {
        "baseColorTexture": {
          "index": 3
        },
        "metallicFactor": 0.0,
        "metallicRoughnessTexture": {
          "index": 4
        }
      }
    },
    {
      "name": "edge_color000255",
      "pbrMetallicRoughness": {
        "metallicFactor": 0.0,
        "roughnessFactor": 0.6
      }
    },
    {
      "name": "edge_color25550152255",
      "pbrMetallicRoughness": {
        "metallicFactor": 0.0,
        "roughnessFactor": 0.6
      }
    },
    {
      "alphaMode": "BLEND",
      "name": "glass",
      "pbrMetallicRoughness": {
        "baseColorFactor": [
          0.3806290697569302,
          0.3806290697569302,
          0.3806290697569302,
          0.6036471918720245
        ],
        "metallicFactor": 0.5489256334020393,
        "roughnessFactor": 0.0
      }
    }
  ],
  "meshes": [
    {
      "name": "Material2",
      "primitives": [
        {
          "attributes": {
            "NORMAL": 1,
            "POSITION": 0,
            "TANGENT": 2,
            "TEXCOORD_0": 3
          },
          "indices": 4,
          "material": 0,
          "mode": 4
        }
      ]
    },
    {
      "name": "Material2",
      "primitives": [
        {
          "attributes": {
            "NORMAL": 6,
            "POSITION": 5,
            "TANGENT": 7,
            "TEXCOORD_0": 8
          },
          "indices": 9,
          "material": 1,
          "mode": 4
        }
      ]
    },
    {
      "name": "Material2",
      "primitives": [
        {
          "attributes": {
            "POSITION": 10
          },
          "indices": 11,
          "material": 2,
          "mode": 1
        }
      ]
    },
    {
      "name": "Material3",
      "primitives": [
        {
          "attributes": {
            "POSITION": 12
          },
          "indices": 13,
          "material": 3,
          "mode": 1
        }
      ]
    },
    {
      "name": "Material2",
      "primitives": [
        {
          "attributes": {
            "NORMAL": 15,
            "POSITION": 14
          },
          "indices": 16,
          "material": 4,
          "mode": 4
        }
      ]
    }
  ],
  "nodes": [
    {
      "children": [
        1
      ],
      "matrix": [
        1.0,
        0.0,
        0.0,
        0.0,
        0.0,
        2.220446049250313e-16,
        -1.0,
        0.0,
        0.0,
        1.0,
        2.220446049250313e-16,
        0.0,
        0.0,
        0.0,
        0.0,
        1.0
      ],
      "name": "Sketchfab_model"
    },
    {
      "children": [
        2,
        3,
        4,
        5,
        6,
        7
      ],
      "name": "Collada visual scene group"
    },
    {
      "mesh": 0,
      "name": "Material2"
    },
    {
      "mesh": 1,
      "name": "Material2"
    },
    {
      "mesh": 2,
      "name": "Material2"
    },
    {
      "mesh": 3,
      "name": "Material3"
    },
    {
      "mesh": 4,
      "name": "Material2"
    },
    {
      "children": [
        8
      ],
      "name": "SketchUp"
    },
    {
      "children": [
        9
      ],
      "matrix": [
        0.8903455,
        -0.4552856,
        -1.387779e-17,
        0.0,
        0.09964405,
        0.1948615,
        0.9757562,
        0.0,
        -0.4442478,
        -0.86876,
        0.2188605,
        0.0,
        9.54835,
        -132.4931,
        66.44615,
        1.0
      ],
      "name": "skp_camera_Last_Saved_SketchUp_View"
    },
    {
      "name": "ID1"
    }
  ],
  "samplers": [
    {
      "magFilter": 9729,
      "minFilter": 9987,
      "wrapS": 10497,
      "wrapT": 10497
    }
  ],
  "scene": 0,
  "scenes": [
    {
      "name": "Sketchfab_Scene",
      "nodes": [
        0
      ]
    }
  ],
  "textures": [
    {
      "sampler": 0,
      "source": 0
    },
    {
      "sampler": 0,
      "source": 1
    },
    {
      "sampler": 0,
      "source": 2
    },
    {
      "sampler": 0,
      "source": 3
    },
    {
      "sampler": 0,
      "source": 4
    },
    {
      "sampler": 0,
      "source": 5
    }
  ]
}
