{
  "accessors": [
    {
      "bufferView": 2,
      "componentType": 5126,
      "count": 348,
      "max": [
        4.0,
        1.5,
        4.0
      ],
      "min": [
        -4.0,
        -1.5,
        -4.0
      ],
      "type": "VEC3"
    },
    {
      "bufferView": 2,
      "byteOffset": 4176,
      "componentType": 5126,
      "count": 348,
      "max": [
        0.9969167113304138,
        1.0,
        0.9969167113304138
      ],
      "min": [
        -0.9969167113304138,
        -1.0,
        -0.9969167113304138
      ],
      "type": "VEC3"
    },
    {
      "bufferView": 1,
      "componentType": 5126,
      "count": 348,
      "max": [
        1.0,
        1.0
      ],
      "min": [
        0.0,
        0.0
      ],
      "type": "VEC2"
    },
    {
      "bufferView": 0,
      "componentType": 5125,
      "count": 1728,
      "type": "SCALAR"
    },
    {
      "bufferView": 2,
      "byteOffset": 8352,
      "componentType": 5126,
      "count": 348,
      "max": [
        4.0,
        1.5,
        4.0
      ],
      "min": [
        -4.0,
        -1.5,
        -4.0
      ],
      "type": "VEC3"
    },
    {
      "bufferView": 2,
      "byteOffset": 12528,
      "componentType": 5126,
      "count": 348,
      "max": [
        0.9969167113304138,
        1.0,
        0.9969167113304138
      ],
      "min": [
        -0.9969167113304138,
        -1.0,
        -0.9969167113304138
      ],
      "type": "VEC3"
    },
    {
      "bufferView": 1,
      "byteOffset": 2784,
      "componentType": 5126,
      "count": 348,
      "max": [
        1.0,
        1.0
      ],
      "min": [
        0.0,
        0.0
      ],
      "type": "VEC2"
    },
    {
      "bufferView": 0,
      "byteOffset": 6912,
      "componentType": 5125,
      "count": 1728,
      "type": "SCALAR"
    },
    {
      "bufferView": 2,
      "byteOffset": 16704,
      "componentType": 5126,
      "count": 348,
      "max": [
        4.0,
        1.5,
        4.0
      ],
      "min": [
        -4.0,
        -1.5,
        -4.0
      ],
      "type": "VEC3"
    },
    {
      "bufferView": 2,
      "byteOffset": 20880,
      "componentType": 5126,
      "count": 348,
      "max": [
        0.9969167113304138,
        1.0,
        0.9969167113304138
      ],
      "min": [
        -0.9969167113304138,
        -1.0,
        -0.9969167113304138
      ],
      "type": "VEC3"
    },
    {
      "bufferView": 1,
      "byteOffset": 5568,
      "componentType": 5126,
      "count": 348,
      "max": [
        1.0,
        1.0
      ],
      "min": [
        0.0,
        0.0
      ],
      "type": "VEC2"
    },
    {
      "bufferView": 0,
      "byteOffset": 13824,
      "componentType": 5125,
      "count": 1728,
      "type": "SCALAR"
    },
    {
      "bufferView": 2,
      "byteOffset": 25056,
      "componentType": 5126,
      "count": 348,
      "max": [
        4.0,
        1.5,
        4.0
      ],
      "min": [
        -4.0,
        -1.5,
        -4.0
      ],
      "type": "VEC3"
    },
    {
      "bufferView": 2,
      "byteOffset": 29232,
      "componentType": 5126,
      "count": 348,
      "max": [
        0.9969167113304138,
        1.0,
        0.9969167113304138
      ],
      "min": [
        -0.9969167113304138,
        -1.0,
        -0.9969167113304138
      ],
      "type": "VEC3"
    },
    {
      "bufferView": 1,
      "byteOffset": 8352,
      "componentType": 5126,
      "count": 348,
      "max": [
        1.0,
        1.0
      ],
      "min": [
        0.0,
        0.0
      ],
      "type": "VEC2"
    },
    {
      "bufferView": 0,
      "byteOffset": 20736,
      "componentType": 5125,
      "count": 1728,
      "type": "SCALAR"
    },
    {
      "bufferView": 2,
      "byteOffset": 33408,
      "componentType": 5126,
      "count": 393,
      "max": [
        26.718692779541016,
        2.2443368434906006,
        26.718692779541016
      ],
      "min": [
        -26.718692779541016,
        -1.4497699737548828,
        -26.718692779541016
      ],
      "type": "VEC3"
    },
    {
      "bufferView": 2,
      "byteOffset": 38124,
      "componentType": 5126,
      "count": 393,
      "max": [
        1.0,
        1.0,
        1.0
      ],
      "min": [
        -1.0,
        -1.0,
        -1.0
      ],
      "type": "VEC3"
    },
    {
      "bufferView": 1,
      "byteOffset": 11136,
      "componentType": 5126,
      "count": 393,
      "max": [
        1.0,
        1.0
      ],
      "min": [
        -1.1102230246251565e-16,
        0.0
      ],
      "type": "VEC2"
    },
    {
      "bufferView": 0,
      "byteOffset": 27648,
      "componentType": 5125,
      "count": 1584,
      "type": "SCALAR"
    },
    {
      "bufferView": 2,
      "byteOffset": 42840,
      "componentType": 5126,
      "count": 1401,
      "max": [
        54.47177505493164,
        40.29389572143555,
        32.280548095703125
      ],
      "min": [
        -33.664127349853516,
        -48.16246032714844,
        -32.1844482421875
      ],
      "type": "VEC3"
    },
    {
      "bufferView": 2,
      "byteOffset": 59652,
      "componentType": 5126,
      "count": 1401,
      "max": [
        0.9999575018882751,
        1.0,
        0.9999573826789856
      ],
      "min": [
        -0.999957799911499,
        -1.0,
        -0.9999577403068542
      ],
      "type": "VEC3"
    },
    {
      "bufferView": 1,
      "byteOffset": 14280,
      "componentType": 5126,
      "count": 1401,
      "max": [
        1.0,
        1.0
      ],
      "min": [
        0.0,
        0.0
      ],
      "type": "VEC2"
    },
    {
      "bufferView": 0,
      "byteOffset": 33984,
      "componentType": 5125,
      "count": 3951,
      "type": "SCALAR"
    },
    {
      "bufferView": 2,
      "byteOffset": 76464,
      "componentType": 5126,
      "count": 677,
      "max": [
        27.305927276611328,
        23.19724464416504,
        32.977115631103516
      ],
      "min": [
        -27.305938720703125,
        -48.76755905151367,
        -27.305932998657227
      ],
      "type": "VEC3"
    },
    {
      "bufferView": 2,
      "byteOffset": 84588,
      "componentType": 5126,
      "count": 677,
      "max": [
        0.9845350384712219,
        1.0,
        0.9845422506332397
      ],
      "min": [
        -0.9845489263534546,
        -0.8805503845214844,
        -0.9909806847572327
      ],
      "type": "VEC3"
    },
    {
      "bufferView": 1,
      "byteOffset": 25488,
      "componentType": 5126,
      "count": 677,
      "max": [
        1.0,
        1.0
      ],
      "min": [
        0.0,
        0.0
      ],
      "type": "VEC2"
    },
    {
      "bufferView": 0,
      "byteOffset": 49788,
      "componentType": 5125,
      "count": 1389,
      "type": "SCALAR"
    }
  ],
  "asset": {
    "extras": {
      "author": "OnOne Supplies (https://sketchfab.com/ononesupplies)",
      "license": "CC-BY-4.0 (http://creativecommons.org/licenses/by/4.0/)",
      "source": "https://sketchfab.com/3d-models/thermos-lowpoly-c7c08ea09ab548f98d9785c05617c04d",
      "title": "Thermos Lowpoly"
    },
    "generator": "Sketchfab-12.66.0",
    "version": "2.0"
  },
  "bufferViews": [
    {
      "buffer": 0,
      "byteLength": 55344,
      "name": "floatBufferViews",
      "target": 34963
    },
    {
      "buffer": 0,
      "byteLength": 30904,
      "byteOffset": 55344,
      "byteStride": 8,
      "name": "floatBufferViews",
      "target": 34962
    },
    {
      "buffer": 0,
      "byteLength": 92712,
      "byteOffset": 86248,
      "byteStride": 12,
      "name": "floatBufferViews",
      "target": 34962
    }
  ],
  "buffers": [
    {
      "byteLength": 178960,
      "uri": "scene.bin"
    }
  ],
  "extensionsUsed": [
    "KHR_materials_clearcoat"
  ],
  "materials": [
    {
      "doubleSided": true,
      "name": "Feet",
      "pbrMetallicRoughness": {
        "baseColorFactor": [
          0.07,
          0.07,
          0.07,
          1.0
        ],
        "metallicFactor": 0.0,
        "roughnessFactor": 0.7550830247645453
      }
    },
    {
      "doubleSided": true,
      "extensions": {
        "KHR_materials_clearcoat": {
          "clearcoatFactor": 1.0,
          "clearcoatRoughnessFactor": 0.04
        }
      },
      "name": "material",
      "pbrMetallicRoughness": {
        "baseColorFactor": [
          0.09,
          0.09,
          0.09,
          1.0
        ],
        "metallicFactor": 0.5732463260553661,
        "roughnessFactor": 0.34771142282132195
      }
    },
    {
      "doubleSided": true,
      "extensions": {
        "KHR_materials_clearcoat": {
          "clearcoatFactor": 1.0,
          "clearcoatRoughnessFactor": 0.04
        }
      },
      "name": "White_Body",
      "pbrMetallicRoughness": {
        "baseColorFactor": [
          0.85,
          0.85,
          0.85,
          1.0
        ],
        "metallicFactor": 0.20843593625546455,
        "roughnessFactor": 0.4024329812913071
      }
    },
    {
      "doubleSided": true,
      "extensions": {
        "KHR_materials_clearcoat": {
          "clearcoatFactor": 1.0,
          "clearcoatRoughnessFactor": 0.04
        }
      },
      "name": "Black_Body",
      "pbrMetallicRoughness": {
        "baseColorFactor": [
          0.09,
          0.09,
          0.09,
          1.0
        ],
        "metallicFactor": 0.73133082830199,
        "roughnessFactor": 0.3294709033313269
      }
    }
  ],
  "meshes": [
    {
      "name": "Feet_4_Feet_0",
      "primitives": [
        {
          "attributes": {
            "NORMAL": 1,
            "POSITION": 0,
            "TEXCOORD_0": 2
          },
          "indices": 3,
          "material": 0,
          "mode": 4
        }
      ]
    },
    {
      "name": "Feet_3_Feet_0",
      "primitives": [
        {
          "attributes": {
            "NORMAL": 5,
            "POSITION": 4,
            "TEXCOORD_0": 6
          },
          "indices": 7,
          "material": 0,
          "mode": 4
        }
      ]
    },
    {
      "name": "Feet_2_Feet_0",
      "primitives": [
        {
          "attributes": {
            "NORMAL": 9,
            "POSITION": 8,
            "TEXCOORD_0": 10
          },
          "indices": 11,
          "material": 0,
          "mode": 4
        }
      ]
    },
    {
      "name": "Feet_1_Feet_0",
      "primitives": [
        {
          "attributes": {
            "NORMAL": 13,
            "POSITION": 12,
            "TEXCOORD_0": 14
          },
          "indices": 15,
          "material": 0,
          "mode": 4
        }
      ]
    },
    {
      "name": "Cap_Cap_0",
      "primitives": [
        {
          "attributes": {
            "NORMAL": 17,
            "POSITION": 16,
            "TEXCOORD_0": 18
          },
          "indices": 19,
          "material": 1,
          "mode": 4
        }
      ]
    },
    {
      "name": "Cylinder__White Body_0",
      "primitives": [
        {
          "attributes": {
            "NORMAL": 21,
            "POSITION": 20,
            "TEXCOORD_0": 22
          },
          "indices": 23,
          "material": 2,
          "mode": 4
        }
      ]
    },
    {
      "name": "Cylinder__Black Body_0",
      "primitives": [
        {
          "attributes": {
            "NORMAL": 25,
            "POSITION": 24,
            "TEXCOORD_0": 26
          },
          "indices": 27,
          "material": 3,
          "mode": 4
        }
      ]
    }
  ],
  "nodes": [
    {
      "children": [
        1
      ],
      "matrix": [
        1.0,
        0.0,
        0.0,
        0.0,
        0.0,
        2.220446049250313e-16,
        -1.0,
        0.0,
        0.0,
        1.0,
        2.220446049250313e-16,
        0.0,
        0.0,
        0.0,
        0.0,
        1.0
      ],
      "name": "Sketchfab_model"
    },
    {
      "children": [
        2
      ],
      "matrix": [
        1.0,
        0.0,
        0.0,
        0.0,
        0.0,
        0.0,
        1.0,
        0.0,
        0.0,
        -1.0,
        0.0,
        0.0,
        0.0,
        0.0,
        0.0,
        1.0
      ],
      "name": "34947e036d6f4c689acce2a211f4e3e7.fbx"
    },
    {
      "children": [
        3,
        5
      ],
      "name": "RootNode"
    },
    {
      "children": [
        4
      ],
      "matrix": [
        -0.36767843271723577,
        -0.0049618829586120855,
        -0.9299397560229922,
        0.0,
        -0.0018243998083068815,
        0.9999876897829818,
        -0.004614309031091745,
        0.0,
        0.9299512039241288,
        4.952635523913784e-16,
        -0.36768295897425474,
        0.0,
        97.79814147949219,
        48.027427673339844,
        238.1200714111328,
        1.0
      ],
      "name": "CINEMA_4D_Editor"
    },
    {
      "name": "Object_4"
    },
    {
      "children": [
        6,
        15,
        17
      ],
      "matrix": [
        1.0,
        0.0,
        0.0,
        0.0,
        0.0,
        1.0,
        0.0,
        0.0,
        0.0,
        0.0,
        1.0,
        0.0,
        0.29329779744148254,
        54.02009201049805,
        0.00898267887532711,
        1.0
      ],
      "name": "Thermos"
    },
    {
      "children": [
        7,
        9,
        11,
        13
      ],
      "matrix": [
        0.707106781186547,
        0.0,
        -0.7071067811865479,
        0.0,
        0.0,
        1.0,
        0.0,
        0.0,
        0.7071067811865479,
        0.0,
        0.707106781186547,
        0.0,
        0.1585322916507721,
        -52.87351608276367,
        0.1174931526184082,
        1.0
      ],
      "name": "Feet"
    },
    {
      "children": [
        8
      ],
      "matrix": [
        1.0,
        0.0,
        0.0,
        0.0,
        0.0,
        1.0,
        0.0,
        0.0,
        0.0,
        0.0,
        1.0,
        0.0,
        5.9674487573602164e-15,
        0.0,
        -18.0,
        1.0
      ],
      "name": "Feet_4"
    },
    {
      "mesh": 0,
      "name": "Feet_4_Feet_0"
    },
    {
      "children": [
        10
      ],
      "matrix": [
        2.220446049250313e-16,
        0.0,
        1.0,
        0.0,
        0.0,
        1.0,
        0.0,
        0.0,
        -1.0,
        0.0,
        2.220446049250313e-16,
        0.0,
        18.0,
        0.0,
        4.718447854656915e-15,
        1.0
      ],
      "name": "Feet_3"
    },
    {
      "mesh": 1,
      "name": "Feet_3_Feet_0"
    },
    {
      "children": [
        12
      ],
      "matrix": [
        -1.0,
        -1.2246467991473532e-16,
        -2.220446049250313e-16,
        0.0,
        -1.2246467991473527e-16,
        1.0,
        -1.2246467991473532e-16,
        0.0,
        2.220446049250313e-16,
        -1.2246467991473527e-16,
        -1.0,
        0.0,
        6.38378239159465e-16,
        0.0,
        18.0,
        1.0
      ],
      "name": "Feet_2"
    },
    {
      "mesh": 2,
      "name": "Feet_2_Feet_0"
    },
    {
      "children": [
        14
      ],
      "matrix": [
        2.220446049250313e-16,
        1.232595164407831e-32,
        -1.0,
        0.0,
        2.090602855382846e-16,
        1.0,
        3.697785493223493e-32,
        0.0,
        1.0,
        -2.090602855382846e-16,
        2.220446049250313e-16,
        0.0,
        -18.0,
        0.0,
        -2.3869795029440866e-15,
        1.0
      ],
      "name": "Feet_1"
    },
    {
      "mesh": 3,
      "name": "Feet_1_Feet_0"
    },
    {
      "children": [
        16
      ],
      "matrix": [
        0.9931367784002652,
        0.0,
        0.11695870805007517,
        0.0,
        0.0,
        1.0,
        0.0,
        0.0,
        -0.11695870805007517,
        0.0,
        0.9931367784002652,
        0.0,
        -0.5189924836158752,
        38.46773147583008,
        -0.10851047188043594,
        1.0
      ],
      "name": "Cap"
    },
    {
      "mesh": 4,
      "name": "Cap_Cap_0"
    },
    {
      "children": [
        18
      ],
      "matrix": [
        1.0,
        0.0,
        0.0,
        0.0,
        0.0,
        1.0,
        0.0,
        0.0,
        0.0,
        0.0,
        1.0,
        0.0,
        0.36046022176742554,
        14.405786514282227,
        -0.00898267887532711,
        1.0
      ],
      "name": "Subdivision_Surface"
    },
    {
      "children": [
        19,
        20
      ],
      "matrix": [
        0.9902680687415704,
        0.0,
        -0.13917310096006538,
        0.0,
        0.0,
        1.0,
        0.0,
        0.0,
        0.13917310096006538,
        0.0,
        0.9902680687415704,
        0.0,
        -0.6537579894065857,
        -17.462785720825195,
        0.0,
        1.0
      ],
      "name": "Cylinder_"
    },
    {
      "mesh": 5,
      "name": "Cylinder__White Body_0"
    },
    {
      "mesh": 6,
      "name": "Cylinder__Black Body_0"
    }
  ],
  "scene": 0,
  "scenes": [
    {
      "name": "Sketchfab_Scene",
      "nodes": [
        0
      ]
    }
  ]
}
