{
  "accessors": [
    {
      "bufferView": 2,
      "componentType": 5126,
      "count": 9471,
      "max": [
        1.8322639465332031,
        1.4202840328216553,
        2.6136670112609863
      ],
      "min": [
        -1.812358021736145,
        -1.285241961479187,
        -3.2510809898376465
      ],
      "type": "VEC3"
    },
    {
      "bufferView": 2,
      "byteOffset": 113652,
      "componentType": 5126,
      "count": 9471,
      "max": [
        0.9997479915618896,
        0.9998498558998108,
        0.9996781945228577
      ],
      "min": [
        -0.9997701644897461,
        -0.9996873140335083,
        -0.9999935030937195
      ],
      "type": "VEC3"
    },
    {
      "bufferView": 1,
      "componentType": 5126,
      "count": 9471,
      "max": [
        0.9950559735298157,
        0.9921219944953918
      ],
      "min": [
        0.009626000188291073,
        0.008046000264585018
      ],
      "type": "VEC2"
    },
    {
      "bufferView": 0,
      "componentType": 5125,
      "count": 53724,
      "type": "SCALAR"
    }
  ],
  "asset": {
    "extras": {
      "author": "albacaizaresalvrz (https://sketchfab.com/albacaizaresalvrz)",
      "license": "CC-BY-4.0 (http://creativecommons.org/licenses/by/4.0/)",
      "source": "https://sketchfab.com/3d-models/teddy-bear-f112bf90127f42ae9bb6f06b45438789",
      "title": "Teddy Bear"
    },
    "generator": "Sketchfab-12.68.0",
    "version": "2.0"
  },
  "bufferViews": [
    {
      "buffer": 0,
      "byteLength": 214896,
      "name": "floatBufferViews",
      "target": 34963
    },
    {
      "buffer": 0,
      "byteLength": 75768,
      "byteOffset": 214896,
      "byteStride": 8,
      "name": "floatBufferViews",
      "target": 34962
    },
    {
      "buffer": 0,
      "byteLength": 227304,
      "byteOffset": 290664,
      "byteStride": 12,
      "name": "floatBufferViews",
      "target": 34962
    }
  ],
  "buffers": [
    {
      "byteLength": 517968,
      "uri": "scene.bin"
    }
  ],
  "images": [
    {
      "uri": "textures/material_0_baseColor.jpeg"
    },
    {
      "uri": "textures/material_0_metallicRoughness.png"
    }
  ],
  "materials": [
    {
      "doubleSided": true,
      "name": "material_0",
      "pbrMetallicRoughness": {
        "baseColorTexture": {
          "index": 0
        },
        "metallicRoughnessTexture": {
          "index": 1
        }
      }
    }
  ],
  "meshes": [
    {
      "name": "Object_0",
      "primitives": [
        {
          "attributes": {
            "NORMAL": 1,
            "POSITION": 0,
            "TEXCOORD_0": 2
          },
          "indices": 3,
          "material": 0,
          "mode": 4
        }
      ]
    }
  ],
  "nodes": [
    {
      "children": [
        1
      ],
      "matrix": [
        1.0,
        2.864235955440006e-17,
        3.2525005349405935e-19,
        0.0,
        2.56150823090794e-19,
        0.002412450732663496,
        -0.999997079372406,
        0.0,
        -2.864306100355951e-17,
        0.999997079372406,
        0.002412450732663496,
        0.0,
        -8.673617379884035e-18,
        -0.0001638224930502476,
        0.0007686804747208953,
        1.0
      ],
      "name": "Sketchfab_model"
    },
    {
      "children": [
        2
      ],
      "name": "oso sk.obj.cleaner.materialmerger.gles"
    },
    {
      "mesh": 0,
      "name": "Object_2"
    }
  ],
  "samplers": [
    {
      "magFilter": 9729,
      "minFilter": 9987,
      "wrapS": 10497,
      "wrapT": 10497
    },
    {
      "magFilter": 9728,
      "minFilter": 9986,
      "wrapS": 33071,
      "wrapT": 33071
    }
  ],
  "scene": 0,
  "scenes": [
    {
      "name": "Sketchfab_Scene",
      "nodes": [
        0
      ]
    }
  ],
  "textures": [
    {
      "sampler": 0,
      "source": 0
    },
    {
      "sampler": 1,
      "source": 1
    }
  ]
}
