{
  "accessors": [
    {
      "bufferView": 2,
      "componentType": 5126,
      "count": 52320,
      "max": [
        1.8131649494171143,
        12.602327346801758,
        1.633482575416565
      ],
      "min": [
        -1.4370008707046509,
        -16.12834358215332,
        -5.715730667114258
      ],
      "type": "VEC3"
    },
    {
      "bufferView": 2,
      "byteOffset": 627840,
      "componentType": 5126,
      "count": 52320,
      "max": [
        1.0,
        1.0,
        1.0
      ],
      "min": [
        -1.0,
        -1.0,
        -1.0
      ],
      "type": "VEC3"
    },
    {
      "bufferView": 1,
      "componentType": 5126,
      "count": 52320,
      "max": [
        0.9998654723167419,
        1.039024829864502
      ],
      "min": [
        0.0,
        -0.02693498134613037
      ],
      "type": "VEC2"
    },
    {
      "bufferView": 0,
      "componentType": 5125,
      "count": 235338,
      "type": "SCALAR"
    },
    {
      "bufferView": 2,
      "byteOffset": 1255680,
      "componentType": 5126,
      "count": 16378,
      "max": [
        0.9800401926040649,
        -0.9505329132080078,
        -0.04715549945831299
      ],
      "min": [
        -0.9800403118133545,
        -19.604434967041016,
        -3.2920899391174316
      ],
      "type": "VEC3"
    },
    {
      "bufferView": 2,
      "byteOffset": 1452216,
      "componentType": 5126,
      "count": 16378,
      "max": [
        1.0,
        1.0,
        1.0
      ],
      "min": [
        -1.0,
        -1.0,
        -1.0
      ],
      "type": "VEC3"
    },
    {
      "bufferView": 1,
      "byteOffset": 418560,
      "componentType": 5126,
      "count": 16378,
      "max": [
        1.0000001192092896,
        1.0000001192092896
      ],
      "min": [
        0.0,
        -0.07867127656936646
      ],
      "type": "VEC2"
    },
    {
      "bufferView": 0,
      "byteOffset": 941352,
      "componentType": 5125,
      "count": 70608,
      "type": "SCALAR"
    },
    {
      "bufferView": 2,
      "byteOffset": 1648752,
      "componentType": 5126,
      "count": 6681,
      "max": [
        1.0270054340362549,
        6.3649516105651855,
        -0.49967122077941895
      ],
      "min": [
        -1.0341761112213135,
        -20.10456657409668,
        -4.427117824554443
      ],
      "type": "VEC3"
    },
    {
      "bufferView": 2,
      "byteOffset": 1728924,
      "componentType": 5126,
      "count": 6681,
      "max": [
        1.0,
        0.9994932413101196,
        0.9999992847442627
      ],
      "min": [
        -1.0,
        -0.999985933303833,
        -0.9999972581863403
      ],
      "type": "VEC3"
    },
    {
      "bufferView": 1,
      "byteOffset": 549584,
      "componentType": 5126,
      "count": 6681,
      "max": [
        0.7849545478820801,
        0.6971476078033447
      ],
      "min": [
        0.21814608573913574,
        0.12099809944629669
      ],
      "type": "VEC2"
    },
    {
      "bufferView": 0,
      "byteOffset": 1223784,
      "componentType": 5125,
      "count": 33792,
      "type": "SCALAR"
    },
    {
      "bufferView": 2,
      "byteOffset": 1809096,
      "componentType": 5126,
      "count": 16869,
      "max": [
        1.0264877080917358,
        13.145062446594238,
        0.8057699799537659
      ],
      "min": [
        -1.0050768852233887,
        0.08022265881299973,
        -5.651338577270508
      ],
      "type": "VEC3"
    },
    {
      "bufferView": 2,
      "byteOffset": 2011524,
      "componentType": 5126,
      "count": 16869,
      "max": [
        0.9999979734420776,
        0.9999946355819702,
        0.9999967813491821
      ],
      "min": [
        -0.9999964237213135,
        -0.5150731801986694,
        -0.999241828918457
      ],
      "type": "VEC3"
    },
    {
      "bufferView": 1,
      "byteOffset": 603032,
      "componentType": 5126,
      "count": 16869,
      "max": [
        0.779768705368042,
        0.9447945356369019
      ],
      "min": [
        0.22599411010742188,
        0.06473791599273682
      ],
      "type": "VEC2"
    },
    {
      "bufferView": 0,
      "byteOffset": 1358952,
      "componentType": 5125,
      "count": 89088,
      "type": "SCALAR"
    },
    {
      "bufferView": 2,
      "byteOffset": 2213952,
      "componentType": 5126,
      "count": 360,
      "max": [
        0.14789165556430817,
        -5.480198860168457,
        -0.7120511531829834
      ],
      "min": [
        -0.14791350066661835,
        -10.053047180175781,
        -2.6000630855560303
      ],
      "type": "VEC3"
    },
    {
      "bufferView": 2,
      "byteOffset": 2218272,
      "componentType": 5126,
      "count": 360,
      "max": [
        1.0,
        0.7890793085098267,
        1.0
      ],
      "min": [
        -1.0,
        -0.8187443614006042,
        -1.0
      ],
      "type": "VEC3"
    },
    {
      "bufferView": 1,
      "byteOffset": 737984,
      "componentType": 5126,
      "count": 360,
      "max": [
        0.764278769493103,
        0.6237056851387024
      ],
      "min": [
        0.23594504594802856,
        -0.28132688999176025
      ],
      "type": "VEC2"
    },
    {
      "bufferView": 0,
      "byteOffset": 1715304,
      "componentType": 5125,
      "count": 1536,
      "type": "SCALAR"
    },
    {
      "bufferView": 2,
      "byteOffset": 2222592,
      "componentType": 5126,
      "count": 5580,
      "max": [
        1.7980436086654663,
        10.619124412536621,
        1.6236155033111572
      ],
      "min": [
        -1.4351056814193726,
        -16.12834358215332,
        -5.7157301902771
      ],
      "type": "VEC3"
    },
    {
      "bufferView": 2,
      "byteOffset": 2289552,
      "componentType": 5126,
      "count": 5580,
      "max": [
        1.0,
        0.9999756813049316,
        0.9999978542327881
      ],
      "min": [
        -0.9999994039535522,
        -0.9865894913673401,
        -1.0
      ],
      "type": "VEC3"
    },
    {
      "bufferView": 1,
      "byteOffset": 740864,
      "componentType": 5126,
      "count": 5580,
      "max": [
        1.0087902545928955,
        1.039024829864502
      ],
      "min": [
        -0.007855655625462532,
        -0.026805579662322998
      ],
      "type": "VEC2"
    },
    {
      "bufferView": 0,
      "byteOffset": 1721448,
      "componentType": 5125,
      "count": 11607,
      "type": "SCALAR"
    },
    {
      "bufferView": 2,
      "byteOffset": 2356512,
      "componentType": 5126,
      "count": 4419,
      "max": [
        0.9783217310905457,
        -0.9505329132080078,
        -0.04789314791560173
      ],
      "min": [
        -0.9783274531364441,
        -19.60155487060547,
        -3.290910482406616
      ],
      "type": "VEC3"
    },
    {
      "bufferView": 2,
      "byteOffset": 2409540,
      "componentType": 5126,
      "count": 4419,
      "max": [
        1.0,
        1.0,
        0.99950110912323
      ],
      "min": [
        -1.0,
        -1.0,
        -0.9995095729827881
      ],
      "type": "VEC3"
    },
    {
      "bufferView": 1,
      "byteOffset": 785504,
      "componentType": 5126,
      "count": 4419,
      "max": [
        1.0000001192092896,
        1.0012754201889038
      ],
      "min": [
        -0.0038944613188505173,
        -0.07867127656936646
      ],
      "type": "VEC2"
    },
    {
      "bufferView": 0,
      "byteOffset": 1767876,
      "componentType": 5125,
      "count": 14259,
      "type": "SCALAR"
    },
    {
      "bufferView": 2,
      "byteOffset": 2462568,
      "componentType": 5126,
      "count": 1233,
      "max": [
        1.0290412902832031,
        6.366489410400391,
        -0.5009109973907471
      ],
      "min": [
        -1.0339518785476685,
        -20.10210418701172,
        -4.425533294677734
      ],
      "type": "VEC3"
    },
    {
      "bufferView": 2,
      "byteOffset": 2477364,
      "componentType": 5126,
      "count": 1233,
      "max": [
        0.9988827109336853,
        0.9985700249671936,
        0.9997918605804443
      ],
      "min": [
        -0.999555230140686,
        -0.9987800121307373,
        -0.9997929334640503
      ],
      "type": "VEC3"
    },
    {
      "bufferView": 1,
      "byteOffset": 820856,
      "componentType": 5126,
      "count": 1233,
      "max": [
        0.7849545478820801,
        0.6893630027770996
      ],
      "min": [
        0.21814608573913574,
        0.1210830807685852
      ],
      "type": "VEC2"
    },
    {
      "bufferView": 0,
      "byteOffset": 1824912,
      "componentType": 5125,
      "count": 5766,
      "type": "SCALAR"
    },
    {
      "bufferView": 2,
      "byteOffset": 2492160,
      "componentType": 5126,
      "count": 647,
      "max": [
        1.0247130393981934,
        13.141227722167969,
        0.7973899245262146
      ],
      "min": [
        -1.00676691532135,
        -0.9886914491653442,
        -5.670373439788818
      ],
      "type": "VEC3"
    },
    {
      "bufferView": 2,
      "byteOffset": 2499924,
      "componentType": 5126,
      "count": 647,
      "max": [
        0.9999687671661377,
        0.9999252557754517,
        0.9990233182907104
      ],
      "min": [
        -0.9999549388885498,
        -0.9990545511245728,
        -0.9987971186637878
      ],
      "type": "VEC3"
    },
    {
      "bufferView": 1,
      "byteOffset": 830720,
      "componentType": 5126,
      "count": 647,
      "max": [
        0.7762688398361206,
        0.9461969137191772
      ],
      "min": [
        0.22734767198562622,
        0.06614804267883301
      ],
      "type": "VEC2"
    },
    {
      "bufferView": 0,
      "byteOffset": 1847976,
      "componentType": 5125,
      "count": 3096,
      "type": "SCALAR"
    },
    {
      "bufferView": 2,
      "byteOffset": 2507688,
      "componentType": 5126,
      "count": 81,
      "max": [
        0.1474582403898239,
        -5.480019569396973,
        -0.7124800682067871
      ],
      "min": [
        -0.1473953127861023,
        -10.05309772491455,
        -2.59954833984375
      ],
      "type": "VEC3"
    },
    {
      "bufferView": 2,
      "byteOffset": 2508660,
      "componentType": 5126,
      "count": 81,
      "max": [
        0.620912492275238,
        0.8414804339408875,
        0.6276193261146545
      ],
      "min": [
        -0.6428986191749573,
        -0.8582062721252441,
        -0.6205788254737854
      ],
      "type": "VEC3"
    },
    {
      "bufferView": 1,
      "byteOffset": 835896,
      "componentType": 5126,
      "count": 81,
      "max": [
        0.7642789483070374,
        0.6237236857414246
      ],
      "min": [
        0.23760801553726196,
        -0.28132694959640503
      ],
      "type": "VEC2"
    },
    {
      "bufferView": 0,
      "byteOffset": 1860360,
      "componentType": 5125,
      "count": 195,
      "type": "SCALAR"
    }
  ],
  "asset": {
    "extras": {
      "author": "meeww (https://sketchfab.com/meeww)",
      "license": "CC-BY-4.0 (http://creativecommons.org/licenses/by/4.0/)",
      "source": "https://sketchfab.com/3d-models/gourney-hospital-bed-aecf349e49864d8492cf320e5b8d063c",
      "title": "Gourney - Hospital Bed"
    },
    "generator": "Sketchfab-12.68.0",
    "version": "2.0"
  },
  "bufferViews": [
    {
      "buffer": 0,
      "byteLength": 1861140,
      "name": "floatBufferViews",
      "target": 34963
    },
    {
      "buffer": 0,
      "byteLength": 836544,
      "byteOffset": 1861140,
      "byteStride": 8,
      "name": "floatBufferViews",
      "target": 34962
    },
    {
      "buffer": 0,
      "byteLength": 2509632,
      "byteOffset": 2697684,
      "byteStride": 12,
      "name": "floatBufferViews",
      "target": 34962
    }
  ],
  "buffers": [
    {
      "byteLength": 5207316,
      "uri": "scene.bin"
    }
  ],
  "materials": [
    {
      "doubleSided": true,
      "name": "Gloss",
      "pbrMetallicRoughness": {
        "roughnessFactor": 0.039464004811681934
      }
    },
    {
      "doubleSided": true,
      "name": "Plastic",
      "pbrMetallicRoughness": {
        "metallicFactor": 0.0
      }
    },
    {
      "doubleSided": true,
      "name": "BlackRubber",
      "pbrMetallicRoughness": {
        "baseColorFactor": [
          0.003438144294573975,
          0.0014850691751283269,
          0.0014850691751283269,
          1.0
        ],
        "metallicFactor": 0.0,
        "roughnessFactor": 0.5020422413806217
      }
    },
    {
      "doubleSided": true,
      "name": "BlueRubber",
      "pbrMetallicRoughness": {
        "baseColorFactor": [
          0.051056549757544145,
          0.1014648361381363,
          0.4342506924924577,
          1.0
        ],
        "metallicFactor": 0.17764020458934385,
        "roughnessFactor": 0.26337425994647834
      }
    },
    {
      "doubleSided": true,
      "name": "screw",
      "pbrMetallicRoughness": {
        "baseColorFactor": [
          0.0,
          0.0,
          0.0,
          1.0
        ]
      }
    }
  ],
  "meshes": [
    {
      "name": "Object_0",
      "primitives": [
        {
          "attributes": {
            "NORMAL": 1,
            "POSITION": 0,
            "TEXCOORD_0": 2
          },
          "indices": 3,
          "material": 0,
          "mode": 4
        }
      ]
    },
    {
      "name": "Object_1",
      "primitives": [
        {
          "attributes": {
            "NORMAL": 5,
            "POSITION": 4,
            "TEXCOORD_0": 6
          },
          "indices": 7,
          "material": 1,
          "mode": 4
        }
      ]
    },
    {
      "name": "Object_2",
      "primitives": [
        {
          "attributes": {
            "NORMAL": 9,
            "POSITION": 8,
            "TEXCOORD_0": 10
          },
          "indices": 11,
          "material": 2,
          "mode": 4
        }
      ]
    },
    {
      "name": "Object_3",
      "primitives": [
        {
          "attributes": {
            "NORMAL": 13,
            "POSITION": 12,
            "TEXCOORD_0": 14
          },
          "indices": 15,
          "material": 3,
          "mode": 4
        }
      ]
    },
    {
      "name": "Object_4",
      "primitives": [
        {
          "attributes": {
            "NORMAL": 17,
            "POSITION": 16,
            "TEXCOORD_0": 18
          },
          "indices": 19,
          "material": 4,
          "mode": 4
        }
      ]
    },
    {
      "name": "Object_5",
      "primitives": [
        {
          "attributes": {
            "NORMAL": 21,
            "POSITION": 20,
            "TEXCOORD_0": 22
          },
          "indices": 23,
          "material": 0,
          "mode": 4
        }
      ]
    },
    {
      "name": "Object_6",
      "primitives": [
        {
          "attributes": {
            "NORMAL": 25,
            "POSITION": 24,
            "TEXCOORD_0": 26
          },
          "indices": 27,
          "material": 1,
          "mode": 4
        }
      ]
    },
    {
      "name": "Object_7",
      "primitives": [
        {
          "attributes": {
            "NORMAL": 29,
            "POSITION": 28,
            "TEXCOORD_0": 30
          },
          "indices": 31,
          "material": 2,
          "mode": 4
        }
      ]
    },
    {
      "name": "Object_8",
      "primitives": [
        {
          "attributes": {
            "NORMAL": 33,
            "POSITION": 32,
            "TEXCOORD_0": 34
          },
          "indices": 35,
          "material": 3,
          "mode": 4
        }
      ]
    },
    {
      "name": "Object_9",
      "primitives": [
        {
          "attributes": {
            "NORMAL": 37,
            "POSITION": 36,
            "TEXCOORD_0": 38
          },
          "indices": 39,
          "material": 4,
          "mode": 4
        }
      ]
    }
  ],
  "nodes": [
    {
      "children": [
        1
      ],
      "matrix": [
        1.0,
        0.0,
        0.0,
        0.0,
        0.0,
        2.220446049250313e-16,
        -1.0,
        0.0,
        0.0,
        1.0,
        2.220446049250313e-16,
        0.0,
        0.0,
        -5.551115123125783e-16,
        -1.232595164407831e-31,
        1.0
      ],
      "name": "Sketchfab_model"
    },
    {
      "children": [
        2
      ],
      "name": "root"
    },
    {
      "children": [
        3,
        9
      ],
      "matrix": [
        1.0,
        0.0,
        0.0,
        0.0,
        0.0,
        2.220446049250313e-16,
        1.0,
        0.0,
        0.0,
        -1.0,
        2.220446049250313e-16,
        0.0,
        0.0,
        0.0,
        0.0,
        1.0
      ],
      "name": "GLTF_SceneRootNode"
    },
    {
      "children": [
        4,
        5,
        6,
        7,
        8
      ],
      "matrix": [
        1.0,
        0.0,
        0.0,
        0.0,
        0.0,
        0.10858362913131714,
        0.0,
        0.0,
        0.0,
        0.0,
        1.0,
        0.0,
        0.0,
        0.03276778757572174,
        0.0,
        1.0
      ],
      "name": "HighPoly_0"
    },
    {
      "mesh": 0,
      "name": "Object_4"
    },
    {
      "mesh": 1,
      "name": "Object_5"
    },
    {
      "mesh": 2,
      "name": "Object_6"
    },
    {
      "mesh": 3,
      "name": "Object_7"
    },
    {
      "mesh": 4,
      "name": "Object_8"
    },
    {
      "children": [
        10,
        11,
        12,
        13,
        14
      ],
      "matrix": [
        1.0,
        0.0,
        0.0,
        0.0,
        0.0,
        0.10858362913131714,
        0.0,
        0.0,
        0.0,
        0.0,
        1.0,
        0.0,
        4.002797603607178,
        0.03276778757572174,
        0.0,
        1.0
      ],
      "name": "LowPoly_4"
    },
    {
      "mesh": 5,
      "name": "Object_10"
    },
    {
      "mesh": 6,
      "name": "Object_11"
    },
    {
      "mesh": 7,
      "name": "Object_12"
    },
    {
      "mesh": 8,
      "name": "Object_13"
    },
    {
      "mesh": 9,
      "name": "Object_14"
    }
  ],
  "scene": 0,
  "scenes": [
    {
      "name": "Sketchfab_Scene",
      "nodes": [
        0
      ]
    }
  ]
}
